<svg width="65" height="72" viewBox="0 0 65 72" fill="none" xmlns="http://www.w3.org/2000/svg">
<g clip-path="url(#clip0)">
<path d="M32.7504 70.268C50.6454 70.268 65.1973 55.7533 65.1973 37.9041C65.1973 34.7876 64.7385 31.6928 63.8645 28.7071C63.8208 27.8353 62.8157 26.2226 41.7525 25.7213C41.7525 25.5906 41.7525 25.4598 41.7525 25.329C41.7525 24.1304 41.8399 22.6702 41.9928 21.0356C42.3643 21.101 42.7576 21.1446 43.1509 21.1446C44.9426 21.1446 46.625 20.4036 47.3679 20.0331C47.7393 20.1421 48.1326 20.1857 48.5696 20.1857C50.0554 20.1857 51.563 19.5755 52.5681 18.5293C53.5077 17.5486 53.9884 16.2628 53.9447 14.8026C53.8354 11.3156 50.5361 9.92077 48.9192 9.44131C49.0285 8.17726 48.8974 5.82352 46.8872 4.29795C46.035 3.64414 44.877 3.31723 43.4568 3.31723C42.0584 3.31723 40.6818 3.64414 39.8297 3.90566C38.8246 2.09677 36.2682 0.396851 32.7504 0.396851C29.2325 0.396851 26.6761 2.09677 25.6929 3.94925C24.8407 3.68772 23.4642 3.36082 22.0658 3.36082C20.6456 3.36082 19.5094 3.68772 18.6354 4.34154C16.6252 5.86711 16.4941 8.22085 16.6033 9.48489C15.0083 9.96436 11.6871 11.381 11.5779 14.8462C11.5342 16.3064 12.0149 17.5922 12.9544 18.5729C13.9595 19.5972 15.4453 20.2293 16.9529 20.2293C17.3681 20.2293 17.7832 20.1857 18.1547 20.0767C18.8757 20.4472 20.5582 21.1882 22.3717 21.1882C22.7868 21.1882 23.1583 21.1446 23.5297 21.0792C23.6827 22.7138 23.7701 24.174 23.7701 25.3726C23.7701 25.5034 23.7701 25.6342 23.7701 25.7649C2.66317 26.2444 1.67993 27.8571 1.63623 28.7289C0.762237 31.6928 0.303391 34.7876 0.303391 37.9041C0.303391 55.7533 14.8554 70.268 32.7504 70.268ZM60.5433 28.8596C57.6155 29.3827 51.1916 29.9275 42.0147 30.1673C41.9273 29.3827 41.8617 28.4891 41.7962 27.552C51.8034 27.7917 57.7902 28.3584 60.5433 28.8596ZM22.3499 19.3793C20.5145 19.3793 18.7009 18.3332 18.6791 18.3332C18.4387 18.1806 18.1328 18.1589 17.8706 18.2896C17.6303 18.3986 17.3025 18.4422 16.9529 18.4422C16.1664 18.4422 15.052 18.1589 14.2436 17.3307C13.6318 16.6987 13.3477 15.8923 13.3696 14.9116C13.457 11.8822 17.7177 11.0541 17.7614 11.0541C18.0017 11.0105 18.2202 10.8797 18.3513 10.6618C18.4824 10.4656 18.5261 10.2041 18.4824 9.96436C18.4824 9.94257 17.8488 7.19654 19.7279 5.77994C20.2741 5.36585 21.0389 5.16971 22.0658 5.16971C23.9449 5.16971 25.8895 5.9107 25.8895 5.9107C26.1299 5.99787 26.3921 5.99788 26.6324 5.86711C26.8509 5.75814 27.0257 5.5402 27.0913 5.27868C27.3972 3.99284 29.3636 2.20574 32.7504 2.20574C36.1371 2.20574 38.1036 4.01463 38.4095 5.27868C38.475 5.51841 38.628 5.73635 38.8683 5.86711C39.1087 5.99788 39.3709 5.99787 39.6112 5.9107C39.6331 5.9107 41.5558 5.16971 43.4349 5.16971C44.44 5.16971 45.2266 5.36585 45.7729 5.77994C47.6301 7.19654 47.0183 9.94257 47.0183 9.96436C46.9527 10.2041 46.9964 10.4656 47.1494 10.6618C47.2805 10.8579 47.499 11.0105 47.7393 11.0541C47.783 11.0541 52.0437 11.8604 52.1311 14.9116C52.153 15.8923 51.8689 16.6987 51.2572 17.3307C50.4706 18.1371 49.3344 18.4422 48.5478 18.4422C48.1982 18.4422 47.8704 18.3768 47.6301 18.2896C47.3679 18.1806 47.062 18.2024 46.8216 18.355C46.7998 18.355 45.0081 19.4011 43.1509 19.4011C42.5828 19.4011 42.0802 19.2921 41.6214 19.096C41.5995 19.096 41.5995 19.0742 41.5777 19.0524C41.4029 18.9652 41.2281 18.8781 41.0751 18.7473C41.0533 18.7473 41.0533 18.7255 41.0314 18.7255C40.9003 18.6165 40.7692 18.5076 40.66 18.3768C40.6163 18.3332 40.5944 18.3114 40.5726 18.2678C40.4633 18.1589 40.3759 18.0281 40.2885 17.8973C40.2667 17.8537 40.223 17.8102 40.2011 17.7666C40.0919 17.5922 39.9827 17.3961 39.8952 17.1999C39.7642 16.8948 39.4583 16.7205 39.1305 16.6987C39.1087 16.6987 39.0868 16.6987 39.065 16.6987C39.0431 16.6987 39.0213 16.6987 38.9994 16.6987C38.9557 16.6987 38.912 16.6987 38.8683 16.7205C38.8465 16.7205 38.8246 16.7423 38.8028 16.7423C38.7591 16.764 38.6935 16.7858 38.6498 16.8076C38.628 16.8294 38.6061 16.8512 38.5843 16.8512C38.5406 16.873 38.4969 16.8948 38.475 16.9384C38.4095 16.982 38.3658 17.0474 38.3221 17.1127C38.3002 17.1345 37.1203 18.8781 32.7722 18.8781C28.4241 18.8781 27.2442 17.1345 27.2442 17.1345C27.0694 16.8512 26.7635 16.6769 26.4139 16.6987C26.0862 16.7205 25.7803 16.9166 25.6492 17.2217C25.5618 17.4397 25.4525 17.614 25.3433 17.7884C25.3214 17.8319 25.2777 17.8755 25.2559 17.9191C25.1685 18.0499 25.0811 18.1589 24.9718 18.2678C24.95 18.3114 24.9063 18.3332 24.8626 18.3768C24.7533 18.5076 24.6222 18.6165 24.4911 18.7037C24.4693 18.7037 24.4693 18.7255 24.4474 18.7255C24.2945 18.8345 24.1197 18.9434 23.9449 19.0306C23.923 19.0306 23.923 19.0524 23.9012 19.0524C23.4205 19.2921 22.9179 19.3793 22.3499 19.3793ZM25.9551 19.7934C25.9769 19.7716 25.9769 19.7716 25.9988 19.7498C26.2173 19.5319 26.4358 19.3139 26.6106 19.0524C26.9602 19.3139 27.4409 19.5972 28.0308 19.8588C28.0527 19.8588 28.0745 19.8806 28.0964 19.9024C28.2493 19.9677 28.4241 20.0331 28.6207 20.0985C28.6863 20.1203 28.73 20.1421 28.7955 20.1639C28.9703 20.2075 29.1451 20.2511 29.3199 20.2947C29.4073 20.3164 29.4947 20.3382 29.604 20.36C29.7788 20.4036 29.9973 20.4254 30.1939 20.469C30.3032 20.4908 30.4124 20.5126 30.5217 20.5344C30.7839 20.578 31.0898 20.5998 31.3957 20.6216C31.4612 20.6216 31.5049 20.6434 31.5705 20.6434C31.9419 20.6651 32.3352 20.6869 32.7285 20.6869C33.1437 20.6869 33.5151 20.6651 33.8866 20.6434C33.9521 20.6434 33.9958 20.6216 34.0614 20.6216C34.3672 20.5998 34.6513 20.578 34.9353 20.5344C35.0446 20.5126 35.1538 20.4908 35.2631 20.469C35.4597 20.4254 35.6564 20.4036 35.853 20.36C35.9404 20.3382 36.0278 20.3164 36.1371 20.2947C36.3119 20.2511 36.5085 20.2075 36.6615 20.1639C36.727 20.1421 36.7707 20.1203 36.8363 20.0985C37.0111 20.0331 37.1859 19.9677 37.3607 19.9024C37.3825 19.9024 37.4044 19.8806 37.4262 19.8588C38.038 19.5972 38.4969 19.3139 38.8465 19.0524C39.0431 19.3139 39.2398 19.5319 39.4583 19.7498C39.4801 19.7716 39.4801 19.7716 39.502 19.7934C39.7205 20.0113 39.9608 20.2075 40.223 20.36C40.0263 22.2779 39.9171 23.956 39.9171 25.3508C39.9171 25.7649 39.9171 26.179 39.9389 26.5931C39.9826 27.8789 40.0919 29.1212 40.1793 30.1891C39.5457 30.2109 38.8902 30.2109 38.2347 30.2109C38.0599 28.7289 37.754 25.6559 37.7758 23.9342C37.7758 23.433 37.3825 23.0189 36.88 23.0189C36.4211 23.0189 35.9623 23.4112 35.9623 23.9124C35.9404 25.6777 36.2463 28.6635 36.4211 30.2327C35.5034 30.2327 34.5639 30.2545 33.6025 30.2545V22.4087C33.6025 21.9074 33.2092 21.5151 32.7067 21.5151C32.2041 21.5151 31.8108 21.9074 31.8108 22.4087V30.2762C30.8494 30.2762 29.9099 30.2762 28.9922 30.2545C29.167 28.6853 29.4729 25.6995 29.451 23.9342C29.451 23.433 29.0359 23.0407 28.5333 23.0407C28.0308 23.0407 27.6375 23.4548 27.6375 23.956C27.6594 25.6777 27.3535 28.7507 27.1787 30.2327C26.5232 30.2327 25.8677 30.2109 25.2559 30.2109C25.4307 28.4674 25.5181 26.8328 25.5181 25.3508C25.5181 23.956 25.4088 22.2779 25.2122 20.36C25.4962 20.2075 25.7366 20.0113 25.9551 19.7934ZM23.6827 27.552C23.639 28.3802 23.5734 29.2519 23.486 30.1673C14.331 29.9493 7.90712 29.4045 4.9574 28.8596C7.68863 28.3584 13.6973 27.7917 23.6827 27.552ZM3.10017 30.2545C4.38931 30.6467 6.79279 31.039 11.3157 31.3877C14.9865 31.6711 19.422 31.8672 24.2726 31.9762C24.2726 31.9762 24.2726 31.9762 24.2945 31.9762C25.4525 31.998 26.6324 32.0198 27.8342 32.0415C27.856 32.0415 27.8779 32.0633 27.9216 32.0633C27.9653 32.0633 27.9871 32.0633 28.0308 32.0633C28.0964 32.0633 28.1401 32.0415 28.1838 32.0415C29.6914 32.0633 31.199 32.0633 32.7504 32.0633C34.3017 32.0633 35.8093 32.0415 37.317 32.0415C37.3607 32.0415 37.4262 32.0633 37.4699 32.0633C37.5136 32.0633 37.5355 32.0633 37.5792 32.0633C37.601 32.0633 37.6229 32.0415 37.6666 32.0415C43.8938 31.9544 49.6184 31.7364 54.185 31.3877C58.7079 31.039 61.1114 30.6467 62.4006 30.2545C63.0561 32.739 63.3838 35.3106 63.3838 37.9041C63.3838 54.7508 49.6403 68.4591 32.7504 68.4591C15.8605 68.4591 2.09508 54.7726 2.09508 37.9259C2.09508 35.3106 2.44467 32.7607 3.10017 30.2545Z" fill="black" stroke="black" stroke-miterlimit="10"/>
<path d="M16.9748 44.6602C19.4607 44.6602 21.4759 42.6502 21.4759 40.1707C21.4759 37.6912 19.4607 35.6812 16.9748 35.6812C14.4889 35.6812 12.4737 37.6912 12.4737 40.1707C12.4737 42.6502 14.4889 44.6602 16.9748 44.6602Z" fill="black" stroke="black" stroke-miterlimit="10"/>
<path d="M48.5041 44.6602C50.9899 44.6602 53.0051 42.6502 53.0051 40.1707C53.0051 37.6912 50.9899 35.6812 48.5041 35.6812C46.0182 35.6812 44.003 37.6912 44.003 40.1707C44.003 42.6502 46.0182 44.6602 48.5041 44.6602Z" fill="black" stroke="black" stroke-miterlimit="10"/>
<path d="M32.7504 63.5338C36.9674 63.5338 40.4197 60.1121 40.4197 55.8841C40.4197 51.6779 36.9892 48.2345 32.7504 48.2345C28.5115 48.2345 25.0811 51.6561 25.0811 55.8841C25.0811 60.1121 28.5115 63.5338 32.7504 63.5338ZM32.7504 50.0434C35.9841 50.0434 38.6061 52.6587 38.6061 55.8841C38.6061 59.1096 35.9841 61.7249 32.7504 61.7249C29.5166 61.7249 26.8946 59.1096 26.8946 55.8841C26.8946 52.6804 29.5166 50.0434 32.7504 50.0434Z" fill="black" stroke="black" stroke-miterlimit="10"/>
</g>
<defs>
<clipPath id="clip0">
<rect width="65" height="72" fill="white"/>
</clipPath>
</defs>
</svg>
