<svg width="296" height="296" viewBox="0 0 296 296" fill="none" xmlns="http://www.w3.org/2000/svg">
<g clip-path="url(#clip0)">
<path d="M148 283.5C222.835 283.5 283.5 222.835 283.5 148C283.5 73.1654 222.835 12.5 148 12.5C73.1654 12.5 12.5 73.1654 12.5 148C12.5 222.835 73.1654 283.5 148 283.5Z" stroke="black" stroke-width="25" stroke-miterlimit="10"/>
<path d="M130.18 171.75C130.18 163.417 131.93 156.417 135.43 150.75C138.93 145.083 144.93 139.167 153.43 133C160.93 127.667 166.263 123.083 169.43 119.25C172.763 115.25 174.43 110.583 174.43 105.25C174.43 99.9167 172.43 95.9167 168.43 93.25C164.596 90.4167 159.18 89 152.18 89C145.18 89 138.263 90.0833 131.43 92.25C124.596 94.4167 117.596 97.3333 110.43 101L97.1797 74.25C105.346 69.75 114.18 66.0833 123.68 63.25C133.18 60.4167 143.596 59 154.93 59C172.263 59 185.68 63.1667 195.18 71.5C204.846 79.8333 209.68 90.4167 209.68 103.25C209.68 110.083 208.596 116 206.43 121C204.263 126 201.013 130.667 196.68 135C192.346 139.167 186.93 143.667 180.43 148.5C175.596 152 171.846 155 169.18 157.5C166.513 160 164.68 162.417 163.68 164.75C162.846 167.083 162.43 170 162.43 173.5V180.75H130.18V171.75ZM126.18 222.5C126.18 214.833 128.263 209.5 132.43 206.5C136.596 203.333 141.68 201.75 147.68 201.75C153.513 201.75 158.513 203.333 162.68 206.5C166.846 209.5 168.93 214.833 168.93 222.5C168.93 229.833 166.846 235.167 162.68 238.5C158.513 241.667 153.513 243.25 147.68 243.25C141.68 243.25 136.596 241.667 132.43 238.5C128.263 235.167 126.18 229.833 126.18 222.5Z" fill="black"/>
</g>
<defs>
<clipPath id="clip0">
<rect width="296" height="296" fill="white"/>
</clipPath>
</defs>
</svg>
