<svg width="71" height="74" viewBox="0 0 71 74" fill="none" xmlns="http://www.w3.org/2000/svg">
<g clip-path="url(#clip0)">
<path d="M35.5 16.4912C25.0588 16.4912 16.547 24.9743 16.547 35.3803C16.547 39.6331 17.9543 43.6598 20.61 47.0304C21.132 47.6864 21.6768 48.3198 22.2669 48.9985L22.2896 49.0437C24.0601 51.1023 25.9214 53.2287 26.6023 55.7397C26.7612 56.3053 26.7839 57.4137 26.7612 58.2734V59.7211C26.7612 61.0332 27.828 62.119 29.1672 62.119H41.7193C43.0358 62.119 44.1253 61.0558 44.1253 59.7211V58.2507C44.1253 57.1423 44.1707 56.3279 44.2842 55.9207C44.9652 53.4323 47.008 51.0344 48.8239 48.908L48.892 48.8175C49.414 48.2067 49.9134 47.6186 50.3673 47.053C53.023 43.705 54.4303 39.6558 54.4303 35.4029C54.453 24.9743 45.9639 16.4912 35.5 16.4912ZM46.6221 44.0896C46.2363 44.5873 45.7596 45.1302 45.2602 45.7184L45.1694 45.8315C43.0358 48.3198 40.6525 51.1475 39.6765 54.6539C39.5403 55.1516 39.3814 55.8981 39.336 57.3233H31.5505C31.5278 55.8076 31.3689 55.0158 31.21 54.4955C30.234 50.944 27.828 48.1615 25.8987 45.922L25.876 45.8767C25.3312 45.2433 24.8091 44.6551 24.3552 44.067C22.3804 41.556 21.3363 38.5473 21.3363 35.3803C21.3363 27.5984 27.6918 21.2644 35.5 21.2644C43.3082 21.2644 49.641 27.5984 49.641 35.3803C49.6637 38.5699 48.6196 41.5786 46.6221 44.0896Z" fill="black"/>
<path d="M41.742 62.775H29.1899C27.8734 62.775 26.7839 63.8382 26.7839 65.1729C26.7839 66.485 27.8507 67.5708 29.1899 67.5708H41.742C43.0585 67.5708 44.148 66.5076 44.148 65.1729C44.1253 63.8382 43.0585 62.775 41.742 62.775Z" fill="black"/>
<path d="M38.587 68.2268H32.2996C30.9831 68.2268 29.8936 69.29 29.8936 70.6247C29.8936 71.9594 30.9604 73.0226 32.2996 73.0226H38.587C39.9035 73.0226 40.993 71.9594 40.993 70.6247C40.993 69.29 39.9262 68.2268 38.587 68.2268Z" fill="black"/>
<path d="M68.6167 32.9823H60.3318C59.0154 32.9823 57.9258 34.0455 57.9258 35.3802C57.9258 36.6922 58.9927 37.7781 60.3318 37.7781H68.6167C69.9332 37.7781 71.0227 36.7149 71.0227 35.3802C71 34.0681 69.9332 32.9823 68.6167 32.9823Z" fill="black"/>
<path d="M13.0742 35.3802C13.0742 34.0681 12.0074 32.9823 10.6682 32.9823H2.40601C1.08951 32.9823 0 34.0455 0 35.3802C0 36.6922 1.06682 37.7781 2.40601 37.7781H10.6682C12.0074 37.7781 13.0742 36.7149 13.0742 35.3802Z" fill="black"/>
<path d="M35.5 13.0301C36.8165 13.0301 37.906 11.9668 37.906 10.6322V2.39789C37.906 1.06322 36.8392 0 35.5 0C34.1835 0 33.094 1.06322 33.094 2.39789V10.6322C33.094 11.9668 34.1835 13.0301 35.5 13.0301Z" fill="black"/>
<path d="M54.7481 51.1927C53.8174 50.2652 52.2967 50.2652 51.366 51.1927C50.4354 52.1202 50.4354 53.6358 51.366 54.5633L57.2222 60.3997C57.6988 60.8747 58.3117 61.101 58.9245 61.101C59.5374 61.101 60.1503 60.8747 60.6269 60.3997C61.5575 59.4722 61.5575 57.9566 60.6269 57.0291L54.7481 51.1927Z" fill="black"/>
<path d="M16.2519 19.5677C16.7286 20.0427 17.3414 20.2689 17.9543 20.2689C18.5671 20.2689 19.18 20.0427 19.6566 19.5677C20.5873 18.6402 20.5873 17.1245 19.6566 16.197L13.8005 10.3607C12.8699 9.43317 11.3491 9.43317 10.4185 10.3607C9.48783 11.2881 9.48783 12.8038 10.4185 13.7313L16.2519 19.5677Z" fill="black"/>
<path d="M16.2519 51.1927L10.3958 57.0291C9.46516 57.9566 9.46516 59.4722 10.3958 60.3997C10.8724 60.8747 11.4853 61.101 12.0982 61.101C12.711 61.101 13.3239 60.8747 13.8005 60.3997L19.6567 54.5633C20.5873 53.6358 20.5873 52.1202 19.6567 51.1927C18.7033 50.2652 17.1826 50.2652 16.2519 51.1927Z" fill="black"/>
<path d="M53.0684 20.269C53.6813 20.269 54.2941 20.0428 54.7708 19.5677L60.6042 13.754C61.5348 12.8265 61.5348 11.3108 60.6042 10.3834C59.6736 9.45587 58.1528 9.45587 57.2222 10.3834L51.366 16.2197C50.4354 17.1472 50.4354 18.6629 51.366 19.5904C51.8427 20.0428 52.4556 20.269 53.0684 20.269Z" fill="black"/>
</g>
<defs>
<clipPath id="clip0">
<rect width="71" height="74" fill="white"/>
</clipPath>
</defs>
</svg>
